<svg xmlns:xlink="http://www.w3.org/1999/xlink" viewBox="0 0 11 11" xmlns="http://www.w3.org/2000/svg" width="11"  height="11" ><defs><path d="M5.06 0A5.063 5.063 0 0 0 0 5.06a5.063 5.063 0 0 0 5.06 5.06 5.063 5.063 0 0 0 5.06-5.06A5.063 5.063 0 0 0 5.06 0Zm-.002.44a4.617 4.617 0 0 1 4.62 4.62 4.617 4.617 0 0 1-4.62 4.62 4.617 4.617 0 0 1-4.62-4.62A4.617 4.617 0 0 1 5.058.44Zm0 1.54a.66.66 0 1 0 0 1.32.66.66 0 0 0 0-1.32Zm-.878 2.2v.44h.44v2.86h-.44v.44h1.76v-.44H5.5v-3.3H4.18Z" id="a"></path></defs><path d="M5.06 0A5.063 5.063 0 0 0 0 5.06a5.063 5.063 0 0 0 5.06 5.06 5.063 5.063 0 0 0 5.06-5.06A5.063 5.063 0 0 0 5.06 0Zm-.002.44a4.617 4.617 0 0 1 4.62 4.62 4.617 4.617 0 0 1-4.62 4.62 4.617 4.617 0 0 1-4.62-4.62A4.617 4.617 0 0 1 5.058.44Zm0 1.54a.66.66 0 1 0 0 1.32.66.66 0 0 0 0-1.32Zm-.878 2.2v.44h.44v2.86h-.44v.44h1.76v-.44H5.5v-3.3H4.18Z" fill="#0052CC" fill-rule="evenodd"></path></svg>